<svg width="635.119384765625px" height="121.60000610351562px" xmlns="http://www.w3.org/2000/svg" viewBox="-67.5596923828125 14.199996948242188 635.119384765625 121.60000610351562" style="background:#f2eddb" preserveAspectRatio="xMidYMid"><defs><filter id="editing-vintage" x="-100%" y="-100%" width="300%" height="300%"><feConvolveMatrix in="SourceGraphic" result="extrude" order="9,9" divisor="1" kernelMatrix="1,0,0,0,0,0,0,0,0,0,1,0,0,0,0,0,0,0,0,0,1,0,0,0,0,0,0,0,0,0,1,0,0,0,0,0,0,0,0,0,1,0,0,0,0,0,0,0,0,0,1,0,0,0,0,0,0,0,0,0,1,0,0,0,0,0,0,0,0,0,1,0,0,0,0,0,0,0,0,0,1"> </feConvolveMatrix><feFlood flood-color="#900" result="flood-extrude"></feFlood><feComposite operator="in" in="flood-extrude" in2="extrude" result="extrude-color"></feComposite><feOffset dx="5" dy="5" in="extrude-color" result="extrude-offset"></feOffset><feColorMatrix in="SourceGraphic" result="stroke" type="matrix" values="0 0 0 0 0 0 0 0 0 0 0 0 0 0 0 0 1 0 0 0 "></feColorMatrix><feColorMatrix in="SourceGraphic" result="fill" type="matrix" values="0 0 0 0 0 0 0 0 0 0 0 0 0 0 0 1 0 0 1 0 "></feColorMatrix><feConvolveMatrix in="stroke" result="inner-shadow" order="5,5" divisor="1" kernelMatrix="1 0 0 0 0 0 1 0 0 0 0 0 1 0 0 0 0 0 1 0 0 0 0 0 1 "></feConvolveMatrix><feOffset dx="1" dy="1" in="inner-shadow" result="offset"></feOffset><feComposite operator="in" in="offset" in2="SourceAlpha" result="comp"></feComposite><feFlood flood-color="#000" result="flood3"></feFlood><feComposite operator="in" in="flood3" in2="comp" result="comp2"></feComposite><feColorMatrix in="comp2" result="comp3" type="matrix" values="1 0 0 0 0 0 1 0 0 0 0 0 1 0 0 0 0 0 0.5 0 "></feColorMatrix><feFlood flood-color="#f00" result="flood1"></feFlood><feComposite operator="in" in="flood1" in2="fill" result="fill2"></feComposite><feFlood flood-color="#fff" result="flood2"></feFlood><feComposite operator="in" in="flood2" in2="stroke" result="stroke2"></feComposite><feMerge result="obj"><feMergeNode in="extrude-offset"></feMergeNode><feMergeNode in="fill2"></feMergeNode><feMergeNode in="comp3"></feMergeNode></feMerge><feConvolveMatrix in="SourceAlpha" result="shadow" order="9,9" divisor="1" kernelMatrix="1,0,0,0,0,0,0,0,0,0,1,0,0,0,0,0,0,0,0,0,1,0,0,0,0,0,0,0,0,0,1,0,0,0,0,0,0,0,0,0,1,0,0,0,0,0,0,0,0,0,1,0,0,0,0,0,0,0,0,0,1,0,0,0,0,0,0,0,0,0,1,0,0,0,0,0,0,0,0,0,1"></feConvolveMatrix><feOffset dx="15" dy="15" in="shadow" result="shadow-offset"></feOffset><feFlood flood-color="#444" result="flood-shadow"></feFlood><feComposite operator="in" in="flood-shadow" in2="shadow-offset" result="shadow-color"></feComposite><feMerge><feMergeNode in="shadow-color"></feMergeNode><feMergeNode in="obj"></feMergeNode></feMerge></filter></defs><g transform="translate(-9,-9)"><g filter="url(#editing-vintage)"><g transform="translate(24.40397557616234, 98.67999649047852)"><path d="M30.21-33.92L30.21-33.92L30.21-33.92Q25.02-33.92 21.25-35.65L21.25-35.65L19.20-25.28L31.55-25.28L31.55-25.28Q31.55-21.89 29.86-19.74L29.86-19.74L29.86-19.74Q28.16-17.60 25.09-17.60L25.09-17.60L25.09-17.60Q21.76-17.60 18.69-18.82L18.69-18.82L18.69-18.82Q18.05-19.07 17.98-19.14L17.98-19.14L14.34 0L0.38 0L8.51-42.24L37.06-42.24L37.06-42.24Q37.06-38.34 35.23-36.13L35.23-36.13L35.23-36.13Q33.41-33.92 30.21-33.92ZM48.96 1.28L48.96 1.28L48.96 1.28Q34.88 1.28 34.88-11.97L34.88-11.97L34.88-11.97Q34.88-21.38 40.06-27.46L40.06-27.46L40.06-27.46Q45.57-33.92 55.10-33.92L55.10-33.92L55.10-33.92Q62.02-33.92 65.54-30.72L65.54-30.72L65.54-30.72Q69.06-27.52 69.06-20.80L69.06-20.80L69.06-20.80Q69.06-10.56 63.55-4.61L63.55-4.61L63.55-4.61Q58.18 1.28 48.96 1.28ZM50.62-26.56L50.62-26.56L50.62-26.56Q49.86-24.83 49.25-22.24L49.25-22.24L49.25-22.24Q48.64-19.65 47.87-15.55L47.87-15.55L47.87-15.55Q47.10-11.46 47.10-6.40L47.10-6.40L47.10-6.40Q47.10-4.74 47.65-3.65L47.65-3.65L47.65-3.65Q48.19-2.56 49.66-2.56L49.66-2.56L49.66-2.56Q51.14-2.56 52.06-3.26L52.06-3.26L52.06-3.26Q52.99-3.97 53.70-5.63L53.70-5.63L53.70-5.63Q54.98-8.58 56-14.05L56-14.05L56-14.05Q57.02-19.52 57.12-21.89L57.12-21.89L57.12-21.89Q57.22-24.26 57.22-26.02L57.22-26.02L57.22-26.02Q57.22-27.78 56.70-28.93L56.70-28.93L56.70-28.93Q56.19-30.08 54.75-30.08L54.75-30.08L54.75-30.08Q53.31-30.08 52.35-29.18L52.35-29.18L52.35-29.18Q51.39-28.29 50.62-26.56ZM86.78 1.28L86.78 1.28L86.78 1.28Q72.70 1.28 72.70-11.97L72.70-11.97L72.70-11.97Q72.70-21.38 77.89-27.46L77.89-27.46L77.89-27.46Q83.39-33.92 92.93-33.92L92.93-33.92L92.93-33.92Q99.84-33.92 103.36-30.72L103.36-30.72L103.36-30.72Q106.88-27.52 106.88-20.80L106.88-20.80L106.88-20.80Q106.88-10.56 101.38-4.61L101.38-4.61L101.38-4.61Q96 1.28 86.78 1.28ZM88.45-26.56L88.45-26.56L88.45-26.56Q87.68-24.83 87.07-22.24L87.07-22.24L87.07-22.24Q86.46-19.65 85.70-15.55L85.70-15.55L85.70-15.55Q84.93-11.46 84.93-6.40L84.93-6.40L84.93-6.40Q84.93-4.74 85.47-3.65L85.47-3.65L85.47-3.65Q86.02-2.56 87.49-2.56L87.49-2.56L87.49-2.56Q88.96-2.56 89.89-3.26L89.89-3.26L89.89-3.26Q90.82-3.97 91.52-5.63L91.52-5.63L91.52-5.63Q92.80-8.58 93.82-14.05L93.82-14.05L93.82-14.05Q94.85-19.52 94.94-21.89L94.94-21.89L94.94-21.89Q95.04-24.26 95.04-26.02L95.04-26.02L95.04-26.02Q95.04-27.78 94.53-28.93L94.53-28.93L94.53-28.93Q94.02-30.08 92.58-30.08L92.58-30.08L92.58-30.08Q91.14-30.08 90.18-29.18L90.18-29.18L90.18-29.18Q89.22-28.29 88.45-26.56ZM130.82-33.92L130.82-33.92L130.82-33.92Q133.12-33.92 134.91-33.41L134.91-33.41L134.91-33.41Q134.98-33.66 135.10-34.37L135.10-34.37L135.42-36.35L135.42-36.35Q135.68-37.63 136.06-39.74L136.06-39.74L137.09-44.80L149.82-46.08L142.72-8.96L142.72-8.96Q142.66-8.58 142.66-7.94L142.66-7.94L142.66-6.91L142.66-6.91Q142.66-5.50 143.36-4.45L143.36-4.45L143.36-4.45Q144.06-3.39 145.22-3.39L145.22-3.39L145.22-3.39Q143.94-0.38 140.03 0.90L140.03 0.90L140.03 0.90Q138.69 1.28 136.80 1.28L136.80 1.28L136.80 1.28Q134.91 1.28 133.18 0.29L133.18 0.29L133.18 0.29Q131.46-0.70 130.94-2.37L130.94-2.37L130.94-2.37Q129.92-0.70 127.87 0.29L127.87 0.29L127.87 0.29Q125.82 1.28 122.85 1.28L122.85 1.28L122.85 1.28Q119.87 1.28 117.41 0.51L117.41 0.51L117.41 0.51Q114.94-0.26 113.41-1.92L113.41-1.92L113.41-1.92Q110.59-5.18 110.59-12.61L110.59-12.61L110.59-12.61Q110.59-22.21 116.22-28.03L116.22-28.03L116.22-28.03Q121.86-33.92 130.82-33.92ZM130.37-30.08L130.37-30.08L130.37-30.08Q128-30.08 126.72-27.52L126.72-27.52L126.72-27.52Q125.44-24.96 124.13-18.62L124.13-18.62L124.13-18.62Q122.82-12.29 122.82-6.59L122.82-6.59L122.82-6.59Q122.82-2.69 125.12-2.69L125.12-2.69L125.12-2.69Q127.17-2.69 128.61-4.74L128.61-4.74L128.61-4.74Q130.05-6.78 130.62-10.18L130.62-10.18L134.08-28.93L134.08-28.93Q132.74-30.08 130.37-30.08ZM205.38-26.56L205.38-26.56L205.38-26.56Q205.38 0.70 175.81 0.70L175.81 0.70L175.81 0.70Q171.07 0.70 163.26-0.45L163.26-0.45L170.43-38.27L170.43-38.27Q170.94-40.83 171.26-42.30L171.26-42.30L171.26-42.30Q180.99-43.01 185.31-43.01L185.31-43.01L185.31-43.01Q189.63-43.01 193.60-42.11L193.60-42.11L193.60-42.11Q197.57-41.22 200.19-39.23L200.19-39.23L200.19-39.23Q205.38-35.33 205.38-26.56ZM192.19-28.93L192.19-28.93L192.19-28.93Q192.19-38.46 185.34-38.46L185.34-38.46L184.70-38.46L184.70-38.46Q184.38-38.46 184.06-38.40L184.06-38.40L177.47-4.03L177.47-4.03Q177.73-3.90 177.98-3.90L177.98-3.90L178.50-3.90L178.50-3.90Q180.86-3.90 183.33-5.38L183.33-5.38L183.33-5.38Q185.79-6.85 187.71-9.86L187.71-9.86L187.71-9.86Q192.19-16.83 192.19-28.93ZM211.42-1.92L211.42-1.92L211.42-1.92Q209.92-3.58 209.25-6.21L209.25-6.21L209.25-6.21Q208.58-8.83 208.58-13.12L208.58-13.12L208.58-13.12Q208.58-17.41 210.05-21.31L210.05-21.31L210.05-21.31Q211.52-25.22 214.21-28.03L214.21-28.03L214.21-28.03Q219.71-33.92 228.80-33.92L228.80-33.92L228.80-33.92Q232.06-33.92 234.43-32.83L234.43-32.83L245.38-33.92L240.64-8.96L240.64-8.96Q240.45-8.19 240.45-6.78L240.45-6.78L240.45-6.78Q240.45-5.38 241.31-4.48L241.31-4.48L241.31-4.48Q242.18-3.58 243.46-3.46L243.46-3.46L243.46-3.46Q242.82-1.28 240.48 0L240.48 0L240.48 0Q238.14 1.28 235.52 1.28L235.52 1.28L235.52 1.28Q232.90 1.28 231.14 0.29L231.14 0.29L231.14 0.29Q229.38-0.70 228.86-2.37L228.86-2.37L228.86-2.37Q227.84-0.77 225.66 0.26L225.66 0.26L225.66 0.26Q223.49 1.28 220.58 1.28L220.58 1.28L220.58 1.28Q217.66 1.28 215.30 0.51L215.30 0.51L215.30 0.51Q212.93-0.26 211.42-1.92ZM224.93-27.90L224.93-27.90L224.93-27.90Q224.19-26.75 223.55-24.80L223.55-24.80L223.55-24.80Q222.91-22.85 221.86-17.63L221.86-17.63L221.86-17.63Q220.80-12.42 220.80-8.70L220.80-8.70L220.80-8.70Q220.80-4.99 221.38-3.90L221.38-3.90L221.38-3.90Q221.95-2.82 222.98-2.82L222.98-2.82L222.98-2.82Q225.02-2.82 226.53-4.77L226.53-4.77L226.53-4.77Q228.03-6.72 228.61-10.18L228.61-10.18L232-28.93L232-28.93Q230.66-30.08 229.09-30.08L229.09-30.08L229.09-30.08Q227.52-30.08 226.59-29.57L226.59-29.57L226.59-29.57Q225.66-29.06 224.93-27.90ZM268.86-17.98L268.86-17.98L268.86-17.98Q271.17-22.08 271.17-26.24L271.17-26.24L271.17-26.24Q271.17-28.99 269.18-28.99L269.18-28.99L269.18-28.99Q267.65-28.99 266.05-26.37L266.05-26.37L266.05-26.37Q264.38-23.74 263.87-20.35L263.87-20.35L260.54 0L247.30 1.28L253.82-32.64L264.38-33.92L263.23-27.46L263.23-27.46Q266.37-33.92 273.41-33.92L273.41-33.92L273.41-33.92Q277.12-33.92 279.14-32L279.14-32L279.14-32Q281.15-30.08 281.15-26.14L281.15-26.14L281.15-26.14Q281.15-22.21 278.56-19.71L278.56-19.71L278.56-19.71Q275.97-17.22 271.55-17.22L271.55-17.22L271.55-17.22Q269.63-17.22 268.86-17.98ZM329.92-10.69L329.92-10.69Q325.70-4.86 321.63-1.79L321.63-1.79L321.63-1.79Q317.57 1.28 313.38 1.28L313.38 1.28L313.38 1.28Q309.18 1.28 307.71 0.45L307.71 0.45L307.71-13.63L307.71-13.63Q304.06-3.90 297.54-0.13L297.54-0.13L297.54-0.13Q295.17 1.28 292.93 1.28L292.93 1.28L292.93 1.28Q288.64 1.28 286.78 0.45L286.78 0.45L286.78 0.45Q286.34-14.21 285.95-18.27L285.95-18.27L285.95-18.27Q285.57-22.34 285.25-24.83L285.25-24.83L285.25-24.83Q284.61-29.82 282.43-31.87L282.43-31.87L282.43-31.87Q285.18-33.92 289.02-33.92L289.02-33.92L289.02-33.92Q296.45-33.92 297.47-24.70L297.47-24.70L297.47-24.70Q297.73-22.53 297.73-20.22L297.73-20.22L297.73-20.22Q297.73-16.77 296.96-4.74L296.96-4.74L296.96-4.74Q298.50-5.44 300.13-7.97L300.13-7.97L300.13-7.97Q301.76-10.50 303.10-13.95L303.10-13.95L303.10-13.95Q306.11-21.95 306.11-28.86L306.11-28.86L306.11-28.86Q306.11-29.95 305.82-31.10L305.82-31.10L305.82-31.10Q305.54-32.26 305.22-32.58L305.22-32.58L305.22-32.58Q307.46-33.92 310.88-33.92L310.88-33.92L310.88-33.92Q314.30-33.92 315.94-31.58L315.94-31.58L315.94-31.58Q317.57-29.25 318.02-24.96L318.02-24.96L318.02-24.96Q318.53-19.52 318.53-16.26L318.53-16.26L318.53-16.26Q318.53-11.71 318.08-4.99L318.08-4.99L318.08-4.99Q321.28-7.30 323.90-14.85L323.90-14.85L323.90-14.85Q326.53-22.40 326.53-27.78L326.53-27.78L326.53-27.78Q326.53-30.14 326.14-31.55L326.14-31.55L326.14-31.55Q328.26-33.92 331.90-33.92L331.90-33.92L331.90-33.92Q334.14-33.92 335.78-32.70L335.78-32.70L335.78-32.70Q337.41-31.49 337.41-29.22L337.41-29.22L337.41-29.22Q337.41-26.94 336.74-24.51L336.74-24.51L336.74-24.51Q336.06-22.08 334.98-19.58L334.98-19.58L334.98-19.58Q332.86-14.59 329.92-10.69L329.92-10.69ZM341.92-1.92L341.92-1.92L341.92-1.92Q340.42-3.58 339.74-6.21L339.74-6.21L339.74-6.21Q339.07-8.83 339.07-13.12L339.07-13.12L339.07-13.12Q339.07-17.41 340.54-21.31L340.54-21.31L340.54-21.31Q342.02-25.22 344.70-28.03L344.70-28.03L344.70-28.03Q350.21-33.92 359.30-33.92L359.30-33.92L359.30-33.92Q362.56-33.92 364.93-32.83L364.93-32.83L375.87-33.92L371.14-8.96L371.14-8.96Q370.94-8.19 370.94-6.78L370.94-6.78L370.94-6.78Q370.94-5.38 371.81-4.48L371.81-4.48L371.81-4.48Q372.67-3.58 373.95-3.46L373.95-3.46L373.95-3.46Q373.31-1.28 370.98 0L370.98 0L370.98 0Q368.64 1.28 366.02 1.28L366.02 1.28L366.02 1.28Q363.39 1.28 361.63 0.29L361.63 0.29L361.63 0.29Q359.87-0.70 359.36-2.37L359.36-2.37L359.36-2.37Q358.34-0.77 356.16 0.26L356.16 0.26L356.16 0.26Q353.98 1.28 351.07 1.28L351.07 1.28L351.07 1.28Q348.16 1.28 345.79 0.51L345.79 0.51L345.79 0.51Q343.42-0.26 341.92-1.92ZM355.42-27.90L355.42-27.90L355.42-27.90Q354.69-26.75 354.05-24.80L354.05-24.80L354.05-24.80Q353.41-22.85 352.35-17.63L352.35-17.63L352.35-17.63Q351.30-12.42 351.30-8.70L351.30-8.70L351.30-8.70Q351.30-4.99 351.87-3.90L351.87-3.90L351.87-3.90Q352.45-2.82 353.47-2.82L353.47-2.82L353.47-2.82Q355.52-2.82 357.02-4.77L357.02-4.77L357.02-4.77Q358.53-6.72 359.10-10.18L359.10-10.18L362.50-28.93L362.50-28.93Q361.15-30.08 359.58-30.08L359.58-30.08L359.58-30.08Q358.02-30.08 357.09-29.57L357.09-29.57L357.09-29.57Q356.16-29.06 355.42-27.90ZM381.86-1.92L381.86-1.92L381.86-1.92Q380.35-3.58 379.68-6.21L379.68-6.21L379.68-6.21Q379.01-8.83 379.01-13.12L379.01-13.12L379.01-13.12Q379.01-17.41 380.48-21.31L380.48-21.31L380.48-21.31Q381.95-25.22 384.64-28.03L384.64-28.03L384.64-28.03Q390.14-33.92 399.23-33.92L399.23-33.92L399.23-33.92Q402.50-33.92 404.86-32.83L404.86-32.83L415.81-33.92L411.07-8.96L411.07-8.96Q410.88-8.19 410.88-6.78L410.88-6.78L410.88-6.78Q410.88-5.38 411.74-4.48L411.74-4.48L411.74-4.48Q412.61-3.58 413.89-3.46L413.89-3.46L413.89-3.46Q413.25-1.28 410.91 0L410.91 0L410.91 0Q408.58 1.28 405.95 1.28L405.95 1.28L405.95 1.28Q403.33 1.28 401.57 0.29L401.57 0.29L401.57 0.29Q399.81-0.70 399.30-2.37L399.30-2.37L399.30-2.37Q398.27-0.77 396.10 0.26L396.10 0.26L396.10 0.26Q393.92 1.28 391.01 1.28L391.01 1.28L391.01 1.28Q388.10 1.28 385.73 0.51L385.73 0.51L385.73 0.51Q383.36-0.26 381.86-1.92ZM395.36-27.90L395.36-27.90L395.36-27.90Q394.62-26.75 393.98-24.80L393.98-24.80L393.98-24.80Q393.34-22.85 392.29-17.63L392.29-17.63L392.29-17.63Q391.23-12.42 391.23-8.70L391.23-8.70L391.23-8.70Q391.23-4.99 391.81-3.90L391.81-3.90L391.81-3.90Q392.38-2.82 393.41-2.82L393.41-2.82L393.41-2.82Q395.46-2.82 396.96-4.77L396.96-4.77L396.96-4.77Q398.46-6.72 399.04-10.18L399.04-10.18L402.43-28.93L402.43-28.93Q401.09-30.08 399.52-30.08L399.52-30.08L399.52-30.08Q397.95-30.08 397.02-29.57L397.02-29.57L397.02-29.57Q396.10-29.06 395.36-27.90ZM439.30-17.98L439.30-17.98L439.30-17.98Q441.60-22.08 441.60-26.24L441.60-26.24L441.60-26.24Q441.60-28.99 439.62-28.99L439.62-28.99L439.62-28.99Q438.08-28.99 436.48-26.37L436.48-26.37L436.48-26.37Q434.82-23.74 434.30-20.35L434.30-20.35L430.98 0L417.73 1.28L424.26-32.64L434.82-33.92L433.66-27.46L433.66-27.46Q436.80-33.92 443.84-33.92L443.84-33.92L443.84-33.92Q447.55-33.92 449.57-32L449.57-32L449.57-32Q451.58-30.08 451.58-26.14L451.58-26.14L451.58-26.14Q451.58-22.21 448.99-19.71L448.99-19.71L448.99-19.71Q446.40-17.22 441.98-17.22L441.98-17.22L441.98-17.22Q440.06-17.22 439.30-17.98Z" fill="#f00" stroke="#0f0" stroke-width="1.8"></path></g></g><g><g transform="translate(24.34665021300316, 98.68000411987305)"><path d="M30.21-33.92L30.21-33.92L30.21-33.92Q25.02-33.92 21.25-35.65L21.25-35.65L19.20-25.28L31.55-25.28L31.55-25.28Q31.55-21.89 29.86-19.74L29.86-19.74L29.86-19.74Q28.16-17.60 25.09-17.60L25.09-17.60L25.09-17.60Q21.76-17.60 18.69-18.82L18.69-18.82L18.69-18.82Q18.05-19.07 17.98-19.14L17.98-19.14L14.34 0L0.38 0L8.51-42.24L37.06-42.24L37.06-42.24Q37.06-38.34 35.23-36.13L35.23-36.13L35.23-36.13Q33.41-33.92 30.21-33.92ZM48.96 1.28L48.96 1.28L48.96 1.28Q34.88 1.28 34.88-11.97L34.88-11.97L34.88-11.97Q34.88-21.38 40.06-27.46L40.06-27.46L40.06-27.46Q45.57-33.92 55.10-33.92L55.10-33.92L55.10-33.92Q62.02-33.92 65.54-30.72L65.54-30.72L65.54-30.72Q69.06-27.52 69.06-20.80L69.06-20.80L69.06-20.80Q69.06-10.56 63.55-4.61L63.55-4.61L63.55-4.61Q58.18 1.28 48.96 1.28ZM50.62-26.56L50.62-26.56L50.62-26.56Q49.86-24.83 49.25-22.24L49.25-22.24L49.25-22.24Q48.64-19.65 47.87-15.55L47.87-15.55L47.87-15.55Q47.10-11.46 47.10-6.40L47.10-6.40L47.10-6.40Q47.10-4.74 47.65-3.65L47.65-3.65L47.65-3.65Q48.19-2.56 49.66-2.56L49.66-2.56L49.66-2.56Q51.14-2.56 52.06-3.26L52.06-3.26L52.06-3.26Q52.99-3.97 53.70-5.63L53.70-5.63L53.70-5.63Q54.98-8.58 56-14.05L56-14.05L56-14.05Q57.02-19.52 57.12-21.89L57.12-21.89L57.12-21.89Q57.22-24.26 57.22-26.02L57.22-26.02L57.22-26.02Q57.22-27.78 56.70-28.93L56.70-28.93L56.70-28.93Q56.19-30.08 54.75-30.08L54.75-30.08L54.75-30.08Q53.31-30.08 52.35-29.18L52.35-29.18L52.35-29.18Q51.39-28.29 50.62-26.56ZM86.78 1.28L86.78 1.28L86.78 1.28Q72.70 1.28 72.70-11.97L72.70-11.97L72.70-11.97Q72.70-21.38 77.89-27.46L77.89-27.46L77.89-27.46Q83.39-33.92 92.93-33.92L92.93-33.92L92.93-33.92Q99.84-33.92 103.36-30.72L103.36-30.72L103.36-30.72Q106.88-27.52 106.88-20.80L106.88-20.80L106.88-20.80Q106.88-10.56 101.38-4.61L101.38-4.61L101.38-4.61Q96 1.28 86.78 1.28ZM88.45-26.56L88.45-26.56L88.45-26.56Q87.68-24.83 87.07-22.24L87.07-22.24L87.07-22.24Q86.46-19.65 85.70-15.55L85.70-15.55L85.70-15.55Q84.93-11.46 84.93-6.40L84.93-6.40L84.93-6.40Q84.93-4.74 85.47-3.65L85.47-3.65L85.47-3.65Q86.02-2.56 87.49-2.56L87.49-2.56L87.49-2.56Q88.96-2.56 89.89-3.26L89.89-3.26L89.89-3.26Q90.82-3.97 91.52-5.63L91.52-5.63L91.52-5.63Q92.80-8.58 93.82-14.05L93.82-14.05L93.82-14.05Q94.85-19.52 94.94-21.89L94.94-21.89L94.94-21.89Q95.04-24.26 95.04-26.02L95.04-26.02L95.04-26.02Q95.04-27.78 94.53-28.93L94.53-28.93L94.53-28.93Q94.02-30.08 92.58-30.08L92.58-30.08L92.58-30.08Q91.14-30.08 90.18-29.18L90.18-29.18L90.18-29.18Q89.22-28.29 88.45-26.56ZM130.82-33.92L130.82-33.92L130.82-33.92Q133.12-33.92 134.91-33.41L134.91-33.41L134.91-33.41Q134.98-33.66 135.10-34.37L135.10-34.37L135.42-36.35L135.42-36.35Q135.68-37.63 136.06-39.74L136.06-39.74L137.09-44.80L149.82-46.08L142.72-8.96L142.72-8.96Q142.66-8.58 142.66-7.94L142.66-7.94L142.66-6.91L142.66-6.91Q142.66-5.50 143.36-4.45L143.36-4.45L143.36-4.45Q144.06-3.39 145.22-3.39L145.22-3.39L145.22-3.39Q143.94-0.38 140.03 0.90L140.03 0.90L140.03 0.90Q138.69 1.28 136.80 1.28L136.80 1.28L136.80 1.28Q134.91 1.28 133.18 0.29L133.18 0.29L133.18 0.29Q131.46-0.70 130.94-2.37L130.94-2.37L130.94-2.37Q129.92-0.70 127.87 0.29L127.87 0.29L127.87 0.29Q125.82 1.28 122.85 1.28L122.85 1.28L122.85 1.28Q119.87 1.28 117.41 0.51L117.41 0.51L117.41 0.51Q114.94-0.26 113.41-1.92L113.41-1.92L113.41-1.92Q110.59-5.18 110.59-12.61L110.59-12.61L110.59-12.61Q110.59-22.21 116.22-28.03L116.22-28.03L116.22-28.03Q121.86-33.92 130.82-33.92ZM130.37-30.08L130.37-30.08L130.37-30.08Q128-30.08 126.72-27.52L126.72-27.52L126.72-27.52Q125.44-24.96 124.13-18.62L124.13-18.62L124.13-18.62Q122.82-12.29 122.82-6.59L122.82-6.59L122.82-6.59Q122.82-2.69 125.12-2.69L125.12-2.69L125.12-2.69Q127.17-2.69 128.61-4.74L128.61-4.74L128.61-4.74Q130.05-6.78 130.62-10.18L130.62-10.18L134.08-28.93L134.08-28.93Q132.74-30.08 130.37-30.08ZM205.38-26.56L205.38-26.56L205.38-26.56Q205.38 0.70 175.81 0.70L175.81 0.70L175.81 0.70Q171.07 0.70 163.26-0.45L163.26-0.45L170.43-38.27L170.43-38.27Q170.94-40.83 171.26-42.30L171.26-42.30L171.26-42.30Q180.99-43.01 185.31-43.01L185.31-43.01L185.31-43.01Q189.63-43.01 193.60-42.11L193.60-42.11L193.60-42.11Q197.57-41.22 200.19-39.23L200.19-39.23L200.19-39.23Q205.38-35.33 205.38-26.56ZM192.19-28.93L192.19-28.93L192.19-28.93Q192.19-38.46 185.34-38.46L185.34-38.46L184.70-38.46L184.70-38.46Q184.38-38.46 184.06-38.40L184.06-38.40L177.47-4.03L177.47-4.03Q177.73-3.90 177.98-3.90L177.98-3.90L178.50-3.90L178.50-3.90Q180.86-3.90 183.33-5.38L183.33-5.38L183.33-5.38Q185.79-6.85 187.71-9.86L187.71-9.86L187.71-9.86Q192.19-16.83 192.19-28.93ZM211.42-1.92L211.42-1.92L211.42-1.92Q209.92-3.58 209.25-6.21L209.25-6.21L209.25-6.21Q208.58-8.83 208.58-13.12L208.58-13.12L208.58-13.12Q208.58-17.41 210.05-21.31L210.05-21.31L210.05-21.31Q211.52-25.22 214.21-28.03L214.21-28.03L214.21-28.03Q219.71-33.92 228.80-33.92L228.80-33.92L228.80-33.92Q232.06-33.92 234.43-32.83L234.43-32.83L245.38-33.92L240.64-8.96L240.64-8.96Q240.45-8.19 240.45-6.78L240.45-6.78L240.45-6.78Q240.45-5.38 241.31-4.48L241.31-4.48L241.31-4.48Q242.18-3.58 243.46-3.46L243.46-3.46L243.46-3.46Q242.82-1.28 240.48 0L240.48 0L240.48 0Q238.14 1.28 235.52 1.28L235.52 1.28L235.52 1.28Q232.90 1.28 231.14 0.29L231.14 0.29L231.14 0.29Q229.38-0.70 228.86-2.37L228.86-2.37L228.86-2.37Q227.84-0.77 225.66 0.26L225.66 0.26L225.66 0.26Q223.49 1.28 220.58 1.28L220.58 1.28L220.58 1.28Q217.66 1.28 215.30 0.51L215.30 0.51L215.30 0.51Q212.93-0.26 211.42-1.92ZM224.93-27.90L224.93-27.90L224.93-27.90Q224.19-26.75 223.55-24.80L223.55-24.80L223.55-24.80Q222.91-22.85 221.86-17.63L221.86-17.63L221.86-17.63Q220.80-12.42 220.80-8.70L220.80-8.70L220.80-8.70Q220.80-4.99 221.38-3.90L221.38-3.90L221.38-3.90Q221.95-2.82 222.98-2.82L222.98-2.82L222.98-2.82Q225.02-2.82 226.53-4.77L226.53-4.77L226.53-4.77Q228.03-6.72 228.61-10.18L228.61-10.18L232-28.93L232-28.93Q230.66-30.08 229.09-30.08L229.09-30.08L229.09-30.08Q227.52-30.08 226.59-29.57L226.59-29.57L226.59-29.57Q225.66-29.06 224.93-27.90ZM268.86-17.98L268.86-17.98L268.86-17.98Q271.17-22.08 271.17-26.24L271.17-26.24L271.17-26.24Q271.17-28.99 269.18-28.99L269.18-28.99L269.18-28.99Q267.65-28.99 266.05-26.37L266.05-26.37L266.05-26.37Q264.38-23.74 263.87-20.35L263.87-20.35L260.54 0L247.30 1.28L253.82-32.64L264.38-33.92L263.23-27.46L263.23-27.46Q266.37-33.92 273.41-33.92L273.41-33.92L273.41-33.92Q277.12-33.92 279.14-32L279.14-32L279.14-32Q281.15-30.08 281.15-26.14L281.15-26.14L281.15-26.14Q281.15-22.21 278.56-19.71L278.56-19.71L278.56-19.71Q275.97-17.22 271.55-17.22L271.55-17.22L271.55-17.22Q269.63-17.22 268.86-17.98ZM329.92-10.69L329.92-10.69Q325.70-4.86 321.63-1.79L321.63-1.79L321.63-1.79Q317.57 1.28 313.38 1.28L313.38 1.28L313.38 1.28Q309.18 1.28 307.71 0.45L307.71 0.45L307.71-13.63L307.71-13.63Q304.06-3.90 297.54-0.13L297.54-0.13L297.54-0.13Q295.17 1.28 292.93 1.28L292.93 1.28L292.93 1.28Q288.64 1.28 286.78 0.45L286.78 0.45L286.78 0.45Q286.34-14.21 285.95-18.27L285.95-18.27L285.95-18.27Q285.57-22.34 285.25-24.83L285.25-24.83L285.25-24.83Q284.61-29.82 282.43-31.87L282.43-31.87L282.43-31.87Q285.18-33.92 289.02-33.92L289.02-33.92L289.02-33.92Q296.45-33.92 297.47-24.70L297.47-24.70L297.47-24.70Q297.73-22.53 297.73-20.22L297.73-20.22L297.73-20.22Q297.73-16.77 296.96-4.74L296.96-4.74L296.96-4.74Q298.50-5.44 300.13-7.97L300.13-7.97L300.13-7.97Q301.76-10.50 303.10-13.95L303.10-13.95L303.10-13.95Q306.11-21.95 306.11-28.86L306.11-28.86L306.11-28.86Q306.11-29.95 305.82-31.10L305.82-31.10L305.82-31.10Q305.54-32.26 305.22-32.58L305.22-32.58L305.22-32.58Q307.46-33.92 310.88-33.92L310.88-33.92L310.88-33.92Q314.30-33.92 315.94-31.58L315.94-31.58L315.94-31.58Q317.57-29.25 318.02-24.96L318.02-24.96L318.02-24.96Q318.53-19.52 318.53-16.26L318.53-16.26L318.53-16.26Q318.53-11.71 318.08-4.99L318.08-4.99L318.08-4.99Q321.28-7.30 323.90-14.85L323.90-14.85L323.90-14.85Q326.53-22.40 326.53-27.78L326.53-27.78L326.53-27.78Q326.53-30.14 326.14-31.55L326.14-31.55L326.14-31.55Q328.26-33.92 331.90-33.92L331.90-33.92L331.90-33.92Q334.14-33.92 335.78-32.70L335.78-32.70L335.78-32.70Q337.41-31.49 337.41-29.22L337.41-29.22L337.41-29.22Q337.41-26.94 336.74-24.51L336.74-24.51L336.74-24.51Q336.06-22.08 334.98-19.58L334.98-19.58L334.98-19.58Q332.86-14.59 329.92-10.69L329.92-10.69ZM341.92-1.92L341.92-1.92L341.92-1.92Q340.42-3.58 339.74-6.21L339.74-6.21L339.74-6.21Q339.07-8.83 339.07-13.12L339.07-13.12L339.07-13.12Q339.07-17.41 340.54-21.31L340.54-21.31L340.54-21.31Q342.02-25.22 344.70-28.03L344.70-28.03L344.70-28.03Q350.21-33.92 359.30-33.92L359.30-33.92L359.30-33.92Q362.56-33.92 364.93-32.83L364.93-32.83L375.87-33.92L371.14-8.96L371.14-8.96Q370.94-8.19 370.94-6.78L370.94-6.78L370.94-6.78Q370.94-5.38 371.81-4.48L371.81-4.48L371.81-4.48Q372.67-3.58 373.95-3.46L373.95-3.46L373.95-3.46Q373.31-1.28 370.98 0L370.98 0L370.98 0Q368.64 1.28 366.02 1.28L366.02 1.28L366.02 1.28Q363.39 1.28 361.63 0.29L361.63 0.29L361.63 0.29Q359.87-0.70 359.36-2.37L359.36-2.37L359.36-2.37Q358.34-0.77 356.16 0.26L356.16 0.26L356.16 0.26Q353.98 1.28 351.07 1.28L351.07 1.28L351.07 1.28Q348.16 1.28 345.79 0.51L345.79 0.51L345.79 0.51Q343.42-0.26 341.92-1.92ZM355.42-27.90L355.42-27.90L355.42-27.90Q354.69-26.75 354.05-24.80L354.05-24.80L354.05-24.80Q353.41-22.85 352.35-17.63L352.35-17.63L352.35-17.63Q351.30-12.42 351.30-8.70L351.30-8.70L351.30-8.70Q351.30-4.99 351.87-3.90L351.87-3.90L351.87-3.90Q352.45-2.82 353.47-2.82L353.47-2.82L353.47-2.82Q355.52-2.82 357.02-4.77L357.02-4.77L357.02-4.77Q358.53-6.72 359.10-10.18L359.10-10.18L362.50-28.93L362.50-28.93Q361.15-30.08 359.58-30.08L359.58-30.08L359.58-30.08Q358.02-30.08 357.09-29.57L357.09-29.57L357.09-29.57Q356.16-29.06 355.42-27.90ZM381.86-1.92L381.86-1.92L381.86-1.92Q380.35-3.58 379.68-6.21L379.68-6.21L379.68-6.21Q379.01-8.83 379.01-13.12L379.01-13.12L379.01-13.12Q379.01-17.41 380.48-21.31L380.48-21.31L380.48-21.31Q381.95-25.22 384.64-28.03L384.64-28.03L384.64-28.03Q390.14-33.92 399.23-33.92L399.23-33.92L399.23-33.92Q402.50-33.92 404.86-32.83L404.86-32.83L415.81-33.92L411.07-8.96L411.07-8.96Q410.88-8.19 410.88-6.78L410.88-6.78L410.88-6.78Q410.88-5.38 411.74-4.48L411.74-4.48L411.74-4.48Q412.61-3.58 413.89-3.46L413.89-3.46L413.89-3.46Q413.25-1.28 410.91 0L410.91 0L410.91 0Q408.58 1.28 405.95 1.28L405.95 1.28L405.95 1.28Q403.33 1.28 401.57 0.29L401.57 0.29L401.57 0.29Q399.81-0.70 399.30-2.37L399.30-2.37L399.30-2.37Q398.27-0.77 396.10 0.26L396.10 0.26L396.10 0.26Q393.92 1.28 391.01 1.28L391.01 1.28L391.01 1.28Q388.10 1.28 385.73 0.51L385.73 0.51L385.73 0.51Q383.36-0.26 381.86-1.92ZM395.36-27.90L395.36-27.90L395.36-27.90Q394.62-26.75 393.98-24.80L393.98-24.80L393.98-24.80Q393.34-22.85 392.29-17.63L392.29-17.63L392.29-17.63Q391.23-12.42 391.23-8.70L391.23-8.70L391.23-8.70Q391.23-4.99 391.81-3.90L391.81-3.90L391.81-3.90Q392.38-2.82 393.41-2.82L393.41-2.82L393.41-2.82Q395.46-2.82 396.96-4.77L396.96-4.77L396.96-4.77Q398.46-6.72 399.04-10.18L399.04-10.18L402.43-28.93L402.43-28.93Q401.09-30.08 399.52-30.08L399.52-30.08L399.52-30.08Q397.95-30.08 397.02-29.57L397.02-29.57L397.02-29.57Q396.10-29.06 395.36-27.90ZM439.30-17.98L439.30-17.98L439.30-17.98Q441.60-22.08 441.60-26.24L441.60-26.24L441.60-26.24Q441.60-28.99 439.62-28.99L439.62-28.99L439.62-28.99Q438.08-28.99 436.48-26.37L436.48-26.37L436.48-26.37Q434.82-23.74 434.30-20.35L434.30-20.35L430.98 0L417.73 1.28L424.26-32.64L434.82-33.92L433.66-27.46L433.66-27.46Q436.80-33.92 443.84-33.92L443.84-33.92L443.84-33.92Q447.55-33.92 449.57-32L449.57-32L449.57-32Q451.58-30.08 451.58-26.14L451.58-26.14L451.58-26.14Q451.58-22.21 448.99-19.71L448.99-19.71L448.99-19.71Q446.40-17.22 441.98-17.22L441.98-17.22L441.98-17.22Q440.06-17.22 439.30-17.98Z" fill="none" stroke="#fff" stroke-width="2.1"></path></g></g></g><style>text {
  font-size: 64px;
  font-family: Arial Black;
  dominant-baseline: central;
  text-anchor: middle;
}</style></svg>